<svg width="823" height="71" viewBox="0 0 823 71" fill="none" xmlns="http://www.w3.org/2000/svg">
<path d="M435.01 2.91003L433.68 1.58002H420.74L419.41 2.91003L397.68 57.7V67.62L399.14 69.08H408.32L409.65 67.75L414.29 55.69L415.68 55H438.74L440.12 55.69L444.76 67.75L446.09 69.08H455.27L456.73 67.62V57.7L435.01 2.91003ZM435.1 41.69L434.82 41.97H419.59L419.31 41.69L427.21 20.64L435.1 41.69Z" fill="white"/>
<path d="M535.58 1.59003H520.77L519.44 2.91003L500.94 48.2401L482.44 2.91003L481.12 1.59003H466.3L464.84 3.04004V67.63L466.3 69.08H478.3L479.76 67.63V32.83L494.02 67.6L494.09 67.76L495.41 69.08H506.47L507.79 67.76L522.13 32.83V67.63L523.58 69.08H535.58L537.04 67.63V3.04004L535.58 1.59003Z" fill="white"/>
<path d="M597.01 39.41C595.2 36.82 592.62 34.97 589.3 33.9C594.91 31.76 598.1 26.54 598.1 19.37C598.1 13.5 595.95 8.76001 591.89 5.64001C588.48 3.02001 583.7 1.58002 578.44 1.58002H548.02L546.56 3.04004V67.63L548.02 69.09H580.31C584.07 69.09 589.45 68.36 593.77 64.91C597.88 61.62 599.97 56.73 599.97 50.37C599.99 45.93 598.99 42.25 597.01 39.41ZM576.57 27.88H561.91L561.49 27.46V15.04L561.91 14.62H576.57C581.28 14.62 583.2 16.54 583.2 21.25C583.2 23.73 582.34 27.88 576.57 27.88ZM561.49 41.33L561.91 40.91H576.57C579.62 40.91 581.76 41.52 583.13 42.79C584.44 44 585.08 45.86 585.08 48.48C585.08 51.1 584.44 52.96 583.13 54.17C581.76 55.43 579.61 56.05 576.57 56.05H561.91L561.49 55.63V41.33Z" fill="white"/>
<path d="M659.32 1.59003H647.32L645.86 3.05005V42.86C645.86 47.5 644.9 51.02 643.01 53.33C640.99 55.8 637.91 57 633.6 57C629.29 57 626.21 55.8 624.19 53.33C622.3 51.02 621.34 47.49 621.34 42.86V3.05005L619.88 1.59003H607.88L606.42 3.05005V42.86C606.42 51.51 608.8 58.28 613.49 62.97C618.18 67.66 624.94 70.04 633.6 70.04C642.25 70.04 649.02 67.66 653.71 62.97C658.4 58.28 660.78 51.51 660.78 42.86V3.05005L659.32 1.59003Z" fill="white"/>
<path d="M716.06 34.17C712.05 31.05 706.3 28.94 698.97 27.89C685.26 25.93 682.83 23.96 682.83 19.37C682.83 17.63 683.51 16.34 684.9 15.41C686.62 14.26 689.42 13.68 693.21 13.68C703.47 13.68 705.47 16.46 705.47 21.25V21.62L706.93 23.08H718.93L720.39 21.62V21.25C720.39 15.13 718.21 10.0201 714.1 6.49005C709.57 2.61005 702.86 0.640015 694.16 0.640015C674.82 0.640015 667.92 10.31 667.92 19.36C667.92 25.74 670.33 30.72 675.09 34.16C678.99 36.97 684.57 38.87 692.15 39.95C705.28 41.82 708.29 43.59 708.29 49.41C708.29 51.9 707.31 53.73 705.3 55C703.22 56.31 700.1 56.98 696.03 56.98C683.57 56.98 681.89 52.2 681.89 47.53V47.16L680.43 45.7H668.43L666.97 47.16V47.53C666.97 54.12 669.35 59.67 673.85 63.57C678.77 67.84 685.91 70.01 695.09 70.01C704.5 70.01 711.76 67.93 716.67 63.82C720.95 60.24 723.21 55.25 723.21 49.41C723.21 42.99 720.8 37.86 716.06 34.17Z" fill="white"/>
<path d="M784.21 1.59003H772.21L770.76 3.04004V27.46L770.33 27.88H745.71L745.29 27.46V3.04004L743.83 1.59003H731.83L730.38 3.04004V67.63L731.83 69.08H743.83L745.29 67.63V41.33L745.71 40.91H770.33L770.76 41.34V67.63L772.21 69.08H784.21L785.67 67.63V3.04004L784.21 1.59003Z" fill="white"/>
<path d="M808.15 0C816.34 0 822.89 6.55005 822.89 14.7401C822.89 22.9301 816.34 29.48 808.15 29.48C799.96 29.48 793.41 22.9301 793.41 14.7401C793.41 6.55005 799.96 0 808.15 0ZM808.15 25.38C814.29 25.38 818.38 20.8801 818.38 14.7401C818.38 8.60005 814.29 4.10004 808.15 4.10004C802.01 4.10004 797.92 8.60005 797.92 14.7401C797.92 20.8801 802.01 25.38 808.15 25.38ZM814.7 19.65V21.7L814.29 22.11H812.24L811.42 21.7L808.55 17.61L807.73 17.2H806.5L806.09 17.61V21.7L805.68 22.11H802.41L802 21.7V7.78003L802.41 7.37H809.78C813.06 7.37 815.1 9.01003 815.1 12.28C815.1 14.33 814.28 15.56 812.64 16.37V16.78L814.7 19.65ZM809.78 11.06H806.51L806.1 11.47V13.11L806.51 13.52H809.78C810.6 13.52 811.01 13.11 811.01 12.29C811.01 11.47 810.6 11.06 809.78 11.06Z" fill="white"/>
<path d="M31.9579 69.5C32.6198 69.5 32.9034 69.1296 33.0925 68.5741L39.1438 50.5185L45.1951 68.5741C45.3842 69.1296 45.6678 69.5 46.3297 69.5H77.2479C78.0043 69.5 78.3825 69.037 78.0989 68.2963L55.123 2.55556C55.0284 2.18519 54.6502 2 54.272 2H24.2047C23.732 2 23.4483 2.18519 23.2592 2.55556L0.0941786 68.2963C-0.189475 69.037 0.188721 69.5 0.945131 69.5H31.9579ZM149.953 69.5C150.424 69.5 150.802 69.1296 150.802 68.6667V41.1667C150.802 40.7037 150.424 40.3333 149.953 40.3333H134.202C134.108 40.3333 133.825 40.3333 133.73 40.1482C133.636 39.963 133.73 39.7778 133.825 39.5926L150.613 3.75926C151.179 2.55556 150.519 2 149.764 2H83.9313C83.4597 2 83.0825 2.46296 83.0825 2.92592V30.4259C83.0825 30.8889 83.4597 31.2593 83.9313 31.2593H99.8708C99.9651 31.2593 100.248 31.2593 100.342 31.4444C100.437 31.6296 100.342 31.8148 100.248 32L83.2711 67.8333C82.7052 68.9444 83.3654 69.5 84.1199 69.5H149.953ZM191.486 69.5C210.692 69.5 226.586 54.5926 226.586 35.9815V2.92592C226.586 2.37037 226.208 2 225.64 2H194.797C194.324 2 193.946 2.37037 193.946 2.92592V35.4259C193.946 36.8148 192.811 37.8333 191.486 37.8333C190.162 37.8333 189.026 36.8148 189.026 35.4259V2.92592C189.026 2.37037 188.648 2 188.175 2H157.332C156.765 2 156.386 2.37037 156.386 2.92592V35.9815C156.386 54.5926 172.28 69.5 191.486 69.5ZM265.928 69.5C266.494 69.5 266.871 69.1296 266.871 68.5741V46.4444H269.509L278.934 68.5741C279.217 69.1296 279.405 69.5 280.159 69.5H312.109C312.769 69.5 312.957 69.2222 312.58 68.3889L298.632 35.8889L312.58 3.11111C312.957 2.27777 312.769 2 312.109 2H280.254C279.5 2 279.311 2.37037 279.028 2.92592L269.321 25.7037H266.871V2.92592C266.871 2.46296 266.494 2 265.928 2H234.827C234.261 2 233.884 2.27777 233.884 2.92592V68.5741C233.884 69.1296 234.261 69.5 234.827 69.5H265.928ZM350.057 69.5C350.528 69.5 351 69.1296 351 68.5741V2.92541C351 2.46244 350.528 2 350.057 2H318.928C318.457 2 317.985 2.46244 317.985 2.92541V68.5741C317.985 69.1296 318.457 69.5 318.928 69.5H350.057Z" fill="white"/>
<path fill-rule="evenodd" clip-rule="evenodd" d="M371.778 2.01198C368.725 2.16852 365.81 3.27597 363.437 5.18062C362.776 5.71198 361.93 6.53467 361.422 7.14194C359.838 9.03681 358.784 11.2096 358.295 13.5886C357.568 17.1311 358.195 20.8177 360.055 23.9431C360.908 25.3766 362.108 26.7518 363.437 27.8189C366.509 30.2847 370.396 31.3763 374.355 30.8847C376.957 30.5617 379.489 29.485 381.564 27.8189C382.227 27.2871 383.074 26.4624 383.579 25.8578C385.813 23.1851 387 19.9366 387 16.4998C387 13.3477 385.987 10.3125 384.095 7.79516C383.381 6.844 382.489 5.92332 381.564 5.18062C378.972 3.09931 375.736 1.97278 372.431 2.0005C372.149 2.00286 371.855 2.00804 371.778 2.01198ZM370.995 7.16642C372.117 8.87917 373.041 10.2805 373.047 10.2805C373.053 10.2805 373.091 10.2498 373.13 10.2124C373.228 10.1185 376.066 7.76015 376.081 7.76015C376.088 7.76015 376.392 8.5294 376.757 9.46957C377.121 10.4098 377.426 11.1866 377.434 11.1959C377.441 11.2052 378.759 10.6778 380.362 10.0239C381.965 9.37002 383.281 8.8392 383.286 8.84436C383.291 8.84949 383.254 10.2118 383.203 11.8716C383.153 13.5315 383.117 14.8967 383.125 14.9054C383.133 14.9142 383.771 15.0919 384.544 15.3003C385.503 15.559 385.943 15.6873 385.93 15.7045C385.786 15.8887 381.489 21.467 381.451 21.5186L381.399 21.5901L381.997 22.9027C382.326 23.6247 382.59 24.2214 382.582 24.2288C382.575 24.2362 381.411 24.1469 379.997 24.0302C378.582 23.9135 377.423 23.8204 377.42 23.8233C377.417 23.8262 377.361 24.847 377.295 26.0917C377.23 27.3364 377.169 28.3818 377.16 28.4148C377.143 28.4744 377.122 28.4642 374.087 26.9281C372.406 26.0775 371.024 25.381 371.016 25.3804C371.008 25.3799 370.469 25.9936 369.819 26.7442C369.169 27.4949 368.629 28.114 368.619 28.12C368.609 28.1259 368.156 27.2382 367.612 26.1472C366.876 24.6735 366.613 24.166 366.587 24.1732C366.568 24.1785 365.7 24.5728 364.659 25.0495C363.619 25.5262 362.756 25.9162 362.743 25.9162C362.728 25.9162 362.723 25.8105 362.729 25.6186C362.756 24.7104 362.835 17.1366 362.817 17.1209C362.805 17.1108 362.09 16.8151 361.227 16.4637C360.364 16.1123 359.659 15.8191 359.659 15.8122C359.66 15.8053 360.468 15.2858 361.456 14.6578C362.443 14.0298 363.25 13.5143 363.25 13.5143C363.25 13.5143 362.983 12.2791 362.657 10.7714C362.33 9.26372 362.066 8.0275 362.069 8.02423C362.072 8.02097 363.343 8.27053 364.894 8.57878C366.444 8.88706 367.716 9.13539 367.721 9.13063C367.729 9.1226 368.896 4.06657 368.896 4.03985C368.896 3.97519 369.223 4.46167 370.995 7.16642ZM365.852 9.7687C365.519 9.80347 365.13 9.95848 364.928 10.137C364.678 10.3581 364.477 10.9638 364.302 12.0285C364.039 13.62 363.931 15.3826 364.03 16.4298C364.152 17.7206 364.359 18.4069 364.731 18.7468C364.917 18.9166 365.145 18.9842 365.387 18.9409C365.507 18.9194 365.538 18.9022 365.624 18.8088C365.823 18.5922 365.965 18.197 366.041 17.6433C366.066 17.4557 366.084 17.0973 366.094 16.5581C366.104 16.0374 366.116 15.7942 366.128 15.8697C366.138 15.9339 366.172 16.1649 366.204 16.3831C366.394 17.6681 366.875 19.6494 367.415 21.3655C367.509 21.6671 367.626 22.0076 367.674 22.1222C367.778 22.3705 367.954 22.6423 368.068 22.7286C368.278 22.889 368.543 22.9565 368.761 22.9052C368.913 22.8696 369.283 22.7032 369.54 22.5543C369.697 22.4641 369.735 22.4498 369.747 22.4788C369.754 22.4984 369.771 22.6471 369.784 22.8093C369.837 23.4653 369.86 23.5804 369.967 23.7496C370.099 23.9581 370.417 24.0433 370.896 23.9989C371.446 23.9479 372.136 23.6955 372.332 23.4728C372.355 23.4471 372.4 23.3232 372.431 23.1974C372.551 22.7264 372.583 22.3033 372.642 20.4007L372.677 19.2608L372.867 18.9888C373.118 18.6291 373.214 18.5109 373.237 18.5342C373.277 18.5756 373.773 19.486 374.449 20.7587C375.055 21.9004 375.36 22.3887 375.662 22.6968C375.835 22.8733 375.947 22.924 376.21 22.9449C376.783 22.9903 377.722 22.5501 377.903 22.151C377.957 22.0328 377.961 21.8501 377.912 21.7134C377.893 21.6576 377.831 21.5382 377.775 21.4479C377.677 21.2887 377.598 21.1449 377.598 21.1244C377.598 21.1188 377.689 21.0859 377.801 21.0511C378.084 20.9628 378.394 20.8213 378.963 20.5208C380.883 19.506 382.131 18.6382 382.397 18.1322C382.577 17.7919 382.701 17.2412 382.677 16.8951C382.66 16.6619 382.624 16.5692 382.512 16.4702C382.441 16.4077 382.407 16.3948 382.314 16.3948C382.177 16.3948 382.035 16.4763 381.64 16.7827C381.174 17.1445 380.306 17.6898 379.803 17.9369C379.541 18.0655 379.043 18.2673 379.026 18.2511C379.022 18.2472 379.102 18.1193 379.204 17.9669C379.638 17.3148 380.077 16.4365 380.545 15.2863C380.839 14.5636 381.47 12.8754 381.531 12.6469C381.617 12.3257 381.632 11.9797 381.569 11.78C381.48 11.5012 381.331 11.3312 381.105 11.2514C380.837 11.1572 380.374 11.1474 379.981 11.2277C379.57 11.3117 378.64 11.6508 377.962 11.9636C377.441 12.2043 376.812 12.5549 376.366 12.8537C376.272 12.9167 376.191 12.9641 376.185 12.959C376.18 12.9539 376.212 12.8491 376.256 12.726C376.507 12.024 376.449 11.6232 376.037 11.2145C375.82 10.9989 375.648 10.9084 375.426 10.8925C375.002 10.8621 374.717 11.1455 374.214 12.1008C373.468 13.518 372.792 14.7699 372.582 15.123C372.277 15.6353 372.309 15.7229 372.309 14.3863C372.31 12.9427 372.265 12.3141 372.138 11.975C372.015 11.6445 371.531 11.4176 371.111 11.4927C370.901 11.5302 370.606 11.6756 370.504 11.7913C370.289 12.0372 370.206 12.4094 370.156 13.361C370.142 13.6241 370.079 14.4957 370.015 15.2979C369.925 16.4369 369.882 17.1674 369.819 18.6321C369.775 19.6637 369.735 20.5113 369.73 20.5156C369.717 20.5288 369.365 19.1331 369.303 18.8218C369.218 18.3933 369.115 17.6531 369.049 16.9898C368.951 16.0187 368.827 14.3882 368.803 13.7694C368.766 12.8132 368.75 12.6769 368.648 12.4581C368.573 12.2983 368.374 12.1172 368.217 12.0647C368.125 12.0344 368.048 12.0276 367.896 12.0365C367.56 12.0562 367.216 12.2158 366.731 12.5772C366.6 12.6744 366.494 12.7409 366.494 12.7249C366.495 12.6599 366.591 12.2701 366.725 11.7859C367.082 10.4982 367.094 10.0379 366.775 9.87285C366.624 9.79465 366.133 9.7393 365.852 9.7687ZM378.953 14.0879C378.914 14.198 378.814 14.4428 378.73 14.6318C378.493 15.1648 377.738 16.6718 377.518 17.0482C377.3 17.4223 376.336 18.8334 376.298 18.8334C376.285 18.8334 376.212 18.7127 376.136 18.5651C375.957 18.2186 375.805 17.9855 375.384 17.4113C374.982 16.8637 374.816 16.6246 374.696 16.4247L374.61 16.2795L374.928 15.6896C375.103 15.3651 375.262 15.0814 375.282 15.0593C375.316 15.0216 375.327 15.0268 375.449 15.1389C375.755 15.419 375.943 15.4335 376.42 15.2142C376.968 14.9627 378.389 14.1825 378.811 13.9013C379.008 13.7705 379.01 13.7699 379.017 13.8286C379.02 13.8611 378.992 13.9778 378.953 14.0879ZM365.006 19.6728C364.588 19.767 364.238 20.1334 364.158 20.5612C364.026 21.2666 364.589 22.2407 365.339 22.6018C365.581 22.7183 365.737 22.7508 365.998 22.7383C366.184 22.7294 366.231 22.7177 366.387 22.6405C366.707 22.4821 366.904 22.2164 366.96 21.8666C367.028 21.4463 366.851 20.8615 366.522 20.4173C366.359 20.1973 366.214 20.0667 365.948 19.8993C365.604 19.683 365.293 19.6082 365.006 19.6728Z" fill="#B14044"/>
</svg>
