<svg width="96" height="100" viewBox="0 0 96 100" fill="none" xmlns="http://www.w3.org/2000/svg">
<path fill-rule="evenodd" clip-rule="evenodd" d="M61.35 0.228193L6.017 4.31519C1.553 4.70119 0 7.61819 0 11.1142V71.7742C0 74.4972 0.967 76.8272 3.3 79.9412L16.307 96.8542C18.444 99.5772 20.387 100.161 24.467 99.9672L88.724 96.0772C94.157 95.6902 95.714 93.1602 95.714 88.8842V20.6412C95.714 18.4312 94.841 17.7942 92.271 15.9082L74.167 3.14419C69.894 0.0371926 68.147 -0.355807 61.35 0.227193V0.228193ZM25.92 19.5242C20.673 19.8772 19.483 19.9572 16.503 17.5342L8.927 11.5082C8.157 10.7282 8.544 9.75519 10.484 9.56119L63.677 5.67419C68.144 5.28419 70.47 6.84119 72.217 8.20119L81.34 14.8112C81.73 15.0082 82.7 16.1712 81.533 16.1712L26.6 19.4782L25.92 19.5242ZM19.803 88.3012V30.3682C19.803 27.8382 20.58 26.6712 22.906 26.4752L86 22.7812C88.14 22.5882 89.107 23.9482 89.107 26.4742V84.0212C89.107 86.5512 88.717 88.6912 85.224 88.8842L24.847 92.3842C21.354 92.5772 19.804 91.4142 19.804 88.3012H19.803ZM79.403 33.4742C79.79 35.2242 79.403 36.9742 77.653 37.1742L74.743 37.7512V80.5242C72.216 81.8842 69.89 82.6612 67.946 82.6612C64.839 82.6612 64.063 81.6882 61.736 78.7742L42.706 48.8342V77.8012L48.726 79.1642C48.726 79.1642 48.726 82.6642 43.869 82.6642L30.479 83.4412C30.089 82.6612 30.479 80.7182 31.836 80.3312L35.333 79.3612V41.0612L30.48 40.6682C30.09 38.9182 31.06 36.3912 33.78 36.1952L48.147 35.2282L67.947 65.5552V38.7252L62.9 38.1452C62.51 36.0022 64.063 34.4452 66.003 34.2552L79.403 33.4742Z" fill="black"/>
</svg>
