<svg width="239" height="268" viewBox="0 0 239 268" fill="none" xmlns="http://www.w3.org/2000/svg">
<path d="M143.751 13.5519C140.201 8.30184 133.601 3.35186 127.701 1.40185C119.201 -1.39814 110.901 0.0018568 103.101 5.55184C94.0509 12.0019 90.3009 20.1519 90.3009 33.3019C90.3009 43.7019 91.9009 49.4019 97.6009 59.4519C106.801 75.6519 110.351 87.0019 110.401 100.052V104.602L107.101 106.002C105.301 106.802 102.651 108.302 101.251 109.402C99.8509 110.452 98.4509 111.302 98.2509 111.302C97.3009 111.302 90.1009 106.602 86.6009 103.752C79.6009 98.0019 73.7009 90.7519 67.0009 79.6019C62.3009 71.8019 58.5009 66.8019 54.9509 63.8519C46.1509 56.5519 37.0009 52.7519 28.1509 52.7519C23.3509 52.7519 20.0509 53.7019 14.6509 56.4519C4.50088 61.7518 -0.799119 71.4018 0.100881 83.0519C0.750881 91.6018 3.30088 97.1518 9.00088 102.552C19.1009 112.102 30.1009 115.802 48.4509 115.802C58.6009 115.802 68.5509 117.602 77.4009 121.052C82.7009 123.102 89.7009 126.752 89.5009 127.402C89.2009 128.402 89.3009 136.652 89.6509 138.852L90.0009 141.152L85.0509 143.702C73.3009 149.752 61.2509 152.302 44.7009 152.302C31.4009 152.302 23.4009 154.702 13.6509 161.552C9.40088 164.552 4.75088 169.652 2.95088 173.402C0.150879 179.102 -0.74912 186.902 0.65088 193.452C1.80088 198.952 3.50088 202.002 7.60088 206.102C10.6009 209.102 12.2009 210.252 16.0009 212.052C21.9509 214.852 26.1509 215.602 31.9509 214.802C41.7509 213.452 50.6009 208.702 57.9509 200.902C61.5509 197.052 63.7009 194.002 68.3009 186.002C74.3009 175.652 83.9009 165.402 93.5009 159.202C97.0832 156.878 98.3324 156.054 99.3595 156.273C99.9237 156.393 100.421 156.828 101.201 157.502C103.151 159.152 107.001 161.352 109.551 162.252C110.801 162.752 110.901 163.002 110.901 165.302C110.901 169.402 109.901 177.202 108.801 182.052C106.951 190.102 104.201 196.652 98.5009 206.802C96.4009 210.502 94.1009 215.002 93.3509 216.802C88.5009 228.752 89.2009 244.502 95.0009 254.152C98.2509 259.602 106.951 265.802 113.401 267.252C117.301 268.152 123.601 267.902 127.051 266.752C132.301 265.002 137.851 261.502 141.101 257.852C147.051 251.252 149.701 241.202 148.551 229.602C147.751 222.002 145.901 216.552 141.051 207.952C132.251 192.202 129.101 182.452 128.551 169.252L128.251 162.402L129.801 162.102C131.651 161.652 136.651 158.702 138.501 156.952L139.851 155.652L144.001 158.352C156.201 166.252 163.701 174.402 172.501 189.152C179.101 200.252 185.001 206.102 194.251 210.752C199.301 213.302 201.801 214.102 206.851 214.802C211.701 215.452 216.251 214.952 220.451 213.202C232.701 208.152 238.901 199.202 238.901 186.552C238.901 178.552 236.451 172.452 230.851 166.552C225.101 160.502 217.901 156.252 209.551 154.002C205.201 152.802 203.351 152.602 193.151 152.302C175.001 151.702 166.601 149.902 154.901 144.002C151.12 142.111 149.68 141.463 149.274 140.415C149.003 139.717 149.191 138.841 149.451 137.302C149.751 135.252 149.801 132.652 149.501 130.452L149.101 126.852L154.601 124.102C166.851 118.102 174.151 116.452 191.651 115.802C204.101 115.302 207.251 114.902 212.651 112.952C223.251 109.202 231.701 102.552 235.801 94.9018C238.651 89.5518 239.601 81.0518 238.151 74.1518C236.201 64.8018 229.151 57.6018 218.501 54.0019C209.651 51.0019 198.501 53.4519 187.951 60.8019C181.701 65.1519 178.401 69.0019 172.401 78.8019C167.351 87.1018 165.701 89.4018 161.101 94.8519C156.951 99.7519 151.051 104.902 144.801 109.052L140.501 111.902L137.901 109.852C136.451 108.702 133.751 107.052 131.851 106.152L128.401 104.552V100.052C128.401 93.3518 129.951 85.3019 132.901 77.0519C134.851 71.5519 136.501 68.1018 140.601 60.8019C146.551 50.2019 148.201 45.0519 148.751 35.3019C149.201 27.1519 147.251 18.7019 143.751 13.5519Z" fill="white"/>
</svg>
