<svg width="57" height="57" viewBox="0 0 57 57" fill="none" xmlns="http://www.w3.org/2000/svg">
<path opacity="0.9" d="M12.7761 20.283L6.66418 17.657C6.61194 20.9657 6.19403 27.1629 5.72388 30.8392C5.04478 31.1543 4.41791 31.5745 4 31.9946L9.01492 34.9882L10.8955 32.7299H16.903C16.4851 41.343 15.806 46.4898 14.6045 47.4877C14.1866 47.9078 13.7687 48.0129 12.9328 48.0129C11.8358 48.0129 8.38806 47.7503 6.24627 47.5927V48.328C8.33582 48.7481 10.1642 49.3784 11.0522 50.2187C11.8881 51.059 12.097 52.3719 12.097 53.9475C14.9701 53.9475 16.903 53.3698 18.4701 52.1093C20.9254 50.1136 21.9179 44.5991 22.3358 33.5702C23.4328 33.4652 24.0597 33.1501 24.4254 32.6774L19.2537 28.3708L16.3284 31.2069H10.7388C11.0522 28.4234 11.3657 24.5895 11.5224 21.806H16.3806V24.1168H17.3209C19.0448 24.1168 21.7612 23.119 21.8134 22.8039V10.8821C22.9627 10.672 23.7463 10.1994 24.0597 9.77921L18.4701 5.47267L15.806 8.41372H4.41791L4.88806 9.88424H16.3806V20.283H12.7761ZM34.7164 5.94534L26.9328 5V26.7428H20.2463L20.6642 28.2658H26.9328V44.179C26.9328 45.492 26.6194 45.9646 24.4254 47.3826L29.2313 54C29.6493 53.6849 30.1194 53.2122 30.4328 52.477C34.5075 48.8532 37.8507 45.492 39.4701 43.6538L39.2612 43.1286L32.7836 45.4394V28.2658H36.2836C37.7985 40.2926 41.194 47.6452 47.5672 53.2122C48.5597 50.4287 50.4925 48.6431 52.8433 48.328L53 47.7503C45.8433 44.1265 39.6269 38.1393 37.1716 28.2658H50.4925C51.2239 28.2658 51.7985 28.0032 51.9552 27.4255C49.709 25.3248 45.8955 22.2787 45.8955 22.2787L42.5522 26.7428H32.7836V23.6967C38.4776 20.9132 43.9104 17.1318 47.4104 13.9282C48.6642 14.1908 49.1343 13.8757 49.4478 13.403L42.1343 8.78135C40.2537 12.4051 36.5448 17.7095 32.7836 21.806V7.15327C34.1418 6.94319 34.6119 6.52305 34.7164 5.94534Z" fill="white"/>
</svg>
