<svg width="160" height="160" viewBox="0 0 160 160" fill="none" xmlns="http://www.w3.org/2000/svg">
<rect width="160" height="160" transform="translate(0 160) rotate(-90)" fill="#0F0F0F"/>
<path d="M91.2447 54.1354C93.5938 51.2936 95.2497 47.4149 95.2497 43.4977C95.2497 42.9601 95.2112 42.4224 95.1342 42C91.2832 42.1536 86.6621 44.5346 83.9279 47.7605C81.7329 50.2183 79.7304 54.1354 79.7304 58.0526C79.7304 58.667 79.846 59.2431 79.8845 59.4351C80.1155 59.4735 80.5006 59.5503 80.9242 59.5503C84.3516 59.5503 88.6646 57.2461 91.2447 54.1354ZM93.9404 60.3567C88.2025 60.3567 83.5043 63.8514 80.5006 63.8514C77.3043 63.8514 73.1453 60.5872 68.1391 60.5872C58.6273 60.5872 49 68.4214 49 83.1683C49 92.385 52.5429 102.101 56.9714 108.361C60.7453 113.66 64.0571 118 68.8323 118C73.5304 118 75.6099 114.889 81.4634 114.889C87.3938 114.889 88.7416 117.923 93.9404 117.923C99.1006 117.923 102.528 113.2 105.801 108.553C109.421 103.215 110.961 98.0303 111 97.7615C110.692 97.6847 100.834 93.6524 100.834 82.4002C100.834 72.6458 108.574 68.2678 109.036 67.9222C103.914 60.5872 96.0969 60.3567 93.9404 60.3567Z" fill="white"/>
</svg>
