<svg width="160" height="160" viewBox="0 0 160 160" fill="none" xmlns="http://www.w3.org/2000/svg">
<rect width="160" height="160" transform="translate(0 160) rotate(-90)" fill="white"/>
<path d="M80.0707 113C66.6399 111.747 56.7606 105.135 51.1732 92.2071C49.6836 88.7614 48.213 85.3051 46.6939 81.8736C45.6101 79.4268 42.8199 78.6533 40.6644 80.1774C39.5632 80.9545 38.5071 81.7973 37.4163 82.5904C36.5511 83.2167 35.5239 83.5668 34.4644 83.5965C33.4049 83.6262 32.3605 83.3341 31.4631 82.7572C29.6995 81.6145 28.7214 79.4286 29.07 77.4095C29.4688 75.1029 31.0295 73.4422 33.277 72.9737C34.0227 72.8057 34.7957 72.8103 35.5394 72.9871C36.2832 73.1639 36.9789 73.5085 37.5759 73.9957C38.6372 74.8279 39.6568 75.7168 40.7095 76.5596C42.8494 78.27 45.6933 77.6898 46.9853 75.2537C48.7801 71.8701 50.535 68.4635 52.3229 65.0746C57.5253 55.2166 65.5023 49.2124 76.3146 47.4346C84.1681 46.1225 92.2192 47.805 98.9409 52.1628C105.663 56.5206 110.588 63.2508 112.782 71.077C116.217 83.2948 112.239 96.6428 102.724 104.9C97.8356 109.196 91.8051 111.901 85.4049 112.668C83.6933 112.883 81.9627 112.888 80.0707 113ZM57.9866 79.111C57.534 92.1574 67.6613 103.176 80.5563 103.664C93.4513 104.152 104.385 93.8838 104.836 80.8072C105.287 67.7307 95.1629 56.7478 82.261 56.2528C69.359 55.7578 58.4409 66.0274 57.9866 79.1075V79.111Z" fill="#1A1717"/>
</svg>
