<svg width="160" height="160" viewBox="0 0 160 160" fill="none" xmlns="http://www.w3.org/2000/svg">
<rect width="160" height="160" transform="translate(0 160) rotate(-90)" fill="#DA6246"/>
<path d="M92.8738 40.4712C96.679 40.4007 100.453 41.1655 103.931 42.7117C101.327 41.0625 98.5481 39.7057 95.6461 38.666C88.5127 36.0578 80.8239 35.3476 73.3334 36.6049C65.8428 37.8623 58.8074 41.0441 52.9165 45.8386C52.5458 46.1126 51.5626 47.0152 51.1757 47.3376C50.7889 47.66 49.9024 48.5304 49.5639 48.9494C49.2254 49.3685 48.4679 50.0938 47.9521 50.5613C47.4363 51.0287 46.8077 51.8991 46.4692 52.3182L45.3087 53.8333C45.0024 54.2524 44.2932 55.3001 44.0031 55.7191C43.713 56.1382 43.5195 56.5089 43.3906 56.7023C43.2616 56.8958 42.9715 57.3793 42.8909 57.5083C42.8103 57.6372 42.0528 59.0234 41.8594 59.3458C41.6659 59.6681 41.0857 60.9576 40.86 61.4089L40.1025 63.1658C40.1025 63.3592 39.5222 64.7776 39.4255 64.9549C39.3288 65.1322 39.087 65.9865 38.9581 66.4056C38.684 67.2115 38.4423 68.1464 38.2166 68.9684C38.0877 69.4681 37.8298 70.7092 37.717 71.2088V71.5956C35.8367 81.8537 37.683 92.446 42.9232 101.463C43.4551 102.333 44.1804 103.526 44.7929 104.348C45.0186 104.687 45.4215 105.267 45.6794 105.589L46.6143 106.814L48.0972 108.555L49.709 110.167C50.0152 110.441 50.4988 110.957 50.8211 111.214L51.4014 111.714L51.5465 111.827L51.6915 111.94L51.9816 112.182C52.3524 112.488 52.8198 112.81 53.2067 113.084L53.5129 113.294L53.8353 113.503C54.1738 113.729 54.7701 114.1 55.1408 114.293C55.5116 114.486 55.6244 114.583 55.8017 114.664L56.8171 115.163C57.1395 115.325 57.5586 115.502 57.8648 115.631C58.6224 115.937 59.4767 116.211 60.1859 116.469C60.605 116.566 61.0563 116.711 61.4753 116.824L62.5875 117.065L63.7158 117.259C65.0125 117.452 66.3216 117.549 67.6325 117.549C70.8303 117.456 73.9834 116.773 76.9328 115.534C80.0466 114.203 82.8628 112.262 85.2156 109.826C87.5685 107.39 89.4105 104.508 90.6333 101.35L90.9074 100.641C90.9074 100.399 91.1814 99.7705 91.262 99.5448C91.407 98.9646 91.6166 98.2714 91.7294 97.6912C91.7294 97.4816 91.8583 97.1593 91.8906 96.9498C92.0767 95.8346 92.2005 94.71 92.2613 93.581C92.2613 93.3231 92.2613 92.7107 92.2613 92.4366V92.2593C91.4231 92.2593 90.6495 92.1465 89.7791 92.0498C83.2395 91.2459 77.2526 87.9785 73.0385 82.9136C68.8243 77.8487 66.7002 71.3674 67.0989 64.7907C67.4976 58.214 70.3892 52.0368 75.1843 47.5181C79.9795 42.9994 86.3172 40.4792 92.906 40.4712H92.8738ZM56.4948 106.105C55.5006 105.272 54.5585 104.378 53.6741 103.429C49.9197 99.4352 47.0332 94.7069 45.1963 89.5423C43.3594 84.3776 42.612 78.8885 43.0011 73.4207C43.3903 67.9529 44.9076 62.625 47.4574 57.7725C50.0072 52.92 53.5343 48.6482 57.8165 45.2261C58.1389 44.9521 58.6546 44.5975 58.977 44.3557C60.2652 43.3984 61.611 42.521 63.0066 41.7284C67.4868 39.2325 72.4173 37.6493 77.5131 37.0703L79.3989 36.9091H81.3009H83.1867L81.3009 37.0541L79.4311 37.2959L77.5775 37.6021C71.9597 38.6295 66.6325 40.8661 61.9649 44.1569C57.2974 47.4477 53.4012 51.7141 50.5463 56.6603C47.6914 61.6065 45.9461 67.1143 45.4314 72.8021C44.9166 78.4898 45.6448 84.2214 47.5652 89.5998C49.1293 93.9413 51.4545 97.9693 54.4316 101.495L54.7218 101.85L54.8668 102.027L55.028 102.188C55.8286 103.11 56.6845 103.982 57.5908 104.799C60.8583 107.644 64.8756 109.488 69.1629 110.111C73.4502 110.734 77.8262 110.11 81.7683 108.313C77.8196 110.521 73.2986 111.491 68.7918 111.097C64.2851 110.703 60.0007 108.964 56.4948 106.105V106.105ZM61.9266 98.7228L61.6365 98.4165L61.4753 98.2715L60.3954 97.1754C57.1572 93.748 54.641 89.7047 52.9961 85.2857C51.3512 80.8667 50.6113 76.1621 50.8203 71.4516C51.0293 66.741 52.1829 62.1205 54.2127 57.8645C56.2424 53.6086 59.1069 49.804 62.6358 46.6768C63.7337 45.713 64.8911 44.8194 66.1013 44.0011C66.7783 43.5498 67.6164 43.0018 68.3256 42.615C69.0348 42.2281 69.9374 41.7607 70.6466 41.39C70.9207 41.2449 71.1785 41.1643 71.4364 41.0353C71.6943 40.9064 72.4035 40.6001 72.6453 40.5196C75.4729 39.3977 78.4383 38.6604 81.462 38.3275C81.9133 38.3275 82.7192 38.1985 83.1706 38.1824H84.46C85.7515 38.1637 87.043 38.2175 88.3284 38.3436C86.3351 38.3674 84.3467 38.5452 82.3808 38.8755C76.7212 39.8072 71.3746 42.1058 66.8046 45.5719C62.2347 49.038 58.5795 53.5668 56.1563 58.7655C53.6344 64.3222 52.6266 70.447 53.2352 76.5188C53.8438 82.5907 56.0471 88.3936 59.6217 93.3393C59.8957 93.6777 60.3471 94.3225 60.6372 94.661C61.1207 95.2574 61.7332 95.9827 62.249 96.5468C65.1269 99.7987 69.0085 101.996 73.2777 102.79C77.5469 103.585 81.9591 102.93 85.814 100.931C78.6091 106.008 68.2611 104.59 61.9266 98.7228ZM66.2947 87.1176C67.6594 89.0862 69.2862 90.8595 71.1302 92.3883C73.3959 94.2214 76.075 95.4733 78.9346 96.0351C81.7943 96.5969 84.7479 96.4516 87.5386 95.612C85.2203 96.6186 82.7088 97.1029 80.1823 97.0305C77.6558 96.958 75.1762 96.3307 72.9193 95.1929C70.6093 94.0573 68.5363 92.4929 66.8105 90.583C63.8424 87.3797 61.5937 83.5785 60.2153 79.4347C58.8369 75.2908 58.3607 70.9001 58.8187 66.557C59.2767 62.214 60.6582 58.0192 62.8705 54.254C65.0829 50.4888 68.075 47.2403 71.646 44.7265C72.0006 44.4686 72.5486 44.1301 72.9355 43.8883C73.6447 43.4209 74.5473 42.9696 75.2404 42.5666C75.9335 42.1637 76.4331 41.9863 76.965 41.7607C80.2214 40.3778 83.6983 39.5863 87.2324 39.4235C87.9577 39.4235 88.7475 39.4235 89.4728 39.4235H89.8436H90.2304L91.3425 39.5202C91.955 39.5202 92.5676 39.6814 93.1801 39.762C92.5676 39.762 91.9551 39.762 91.3265 39.762H89.8597C87.0507 39.9399 84.2767 40.4817 81.6071 41.3738C77.1443 42.8234 73.0834 45.2992 69.7508 48.6025C66.4181 51.9058 63.9064 55.9445 62.4174 60.3944C60.9283 64.8442 60.5035 69.5812 61.1768 74.225C61.8502 78.8689 63.6031 83.2901 66.2947 87.1337V87.1176Z" fill="black"/>
<path d="M107.476 113.197C107.831 112.923 108.83 112.02 109.217 111.698L110.829 110.086L112.441 108.474C112.812 108.039 113.585 107.153 113.924 106.717L115.084 105.202C115.39 104.783 116.1 103.735 116.39 103.316L117.002 102.333C117.099 102.204 117.421 101.656 117.502 101.527C117.583 101.398 118.34 100.028 118.517 99.6898C118.695 99.3513 119.307 98.078 119.533 97.6266C119.759 97.1753 120.065 96.3855 120.29 95.8698C120.29 95.6925 120.871 94.2579 120.951 94.0806C121.032 93.9033 121.306 93.049 121.435 92.63C121.709 91.824 121.951 90.8892 122.176 90.0672C122.305 89.5675 122.547 88.3264 122.676 87.8267V87.456C124.559 77.198 122.713 66.6047 117.47 57.5888C116.938 56.7023 116.213 55.5256 115.6 54.6875C115.374 54.349 114.971 53.7687 114.713 53.4464L113.779 52.2375C113.456 51.8668 112.602 50.8352 112.28 50.4806C111.957 50.126 111.216 49.3362 110.668 48.8688C110.378 48.5948 109.878 48.0789 109.572 47.8211L108.991 47.3375L108.846 47.2086L108.701 47.0958L108.395 46.854C108.041 46.5477 107.573 46.2254 107.186 45.9514L106.864 45.7418L106.558 45.5323C106.203 45.3066 105.623 44.9359 105.252 44.7425C104.881 44.5491 104.768 44.4524 104.591 44.3718L103.576 43.8721L102.528 43.4047C101.77 43.0984 100.916 42.8244 100.207 42.5665L98.9176 42.228L97.8054 41.9702L96.6771 41.7767C95.3804 41.5839 94.0713 41.487 92.7603 41.4866C89.5626 41.5792 86.4095 42.2622 83.4601 43.5014C80.3462 44.833 77.5301 46.7738 75.1772 49.2097C72.8244 51.6455 70.9824 54.5273 69.7595 57.6855L69.4855 58.4108C69.4049 58.6364 69.2115 59.2651 69.1309 59.4907C68.9697 60.071 68.7763 60.7641 68.6635 61.3443C68.6635 61.5539 68.5346 61.8762 68.5023 62.0858C68.2957 63.2151 68.1611 64.3564 68.0994 65.5028C68.0994 65.7607 68.0994 66.3894 68.0994 66.6473V66.9052C71.5115 66.9443 74.8816 67.6632 78.0127 69.0198C81.1438 70.3764 83.9731 72.3435 86.3352 74.8061C88.6973 77.2688 90.5448 80.1776 91.7698 83.3625C92.9948 86.5474 93.5726 89.9445 93.4696 93.3553C93.2842 97.6523 92.0532 101.839 89.8833 105.553C87.7133 109.266 84.67 112.394 81.0174 114.665C77.3648 116.936 73.2132 118.282 68.9229 118.585C64.6326 118.888 60.3331 118.139 56.3975 116.404C59.005 118.052 61.7827 119.414 64.6823 120.466C71.8335 123.068 79.5384 123.767 87.0409 122.492C94.5434 121.218 101.586 118.015 107.476 113.197V113.197ZM103.93 52.8822C104.931 53.7192 105.884 54.6126 106.783 55.5579C113.977 63.2187 117.845 73.4156 117.543 83.9201C117.241 94.4246 112.793 104.382 105.171 111.617C104.785 111.972 104.156 112.584 103.737 112.907L102.995 113.519L102.609 113.842L102.431 113.987L101.464 114.712C100.165 115.664 98.8083 116.536 97.4024 117.323L95.6939 118.226C89.9524 121.062 83.5879 122.404 77.1901 122.126C87.5459 121.574 97.2929 117.061 104.414 109.522C110.755 102.78 114.501 94.008 114.985 84.765C115.469 75.522 112.66 66.4067 107.057 59.0394C106.719 58.5559 106.267 58.0562 105.897 57.6049L105.607 57.2503L105.462 57.073L105.317 56.8957C102.157 53.0669 97.8226 50.3869 92.9854 49.2709C88.1482 48.1548 83.078 48.665 78.5601 50.7224C82.5149 48.4868 87.0524 47.4969 91.579 47.8822C96.1055 48.2676 100.41 50.0103 103.93 52.8822V52.8822ZM97.483 59.3295C97.9988 59.7325 98.5146 60.2161 98.9981 60.6513C103.141 64.6353 106.243 69.5758 108.031 75.0388C109.818 80.5018 110.237 86.3202 109.25 91.9829C108.264 97.6456 105.902 102.979 102.371 107.516C98.8414 112.052 94.2515 115.652 89.0048 118L88.1989 118.339L88.0054 118.419L87.7959 118.5L87.393 118.661C86.9739 118.806 86.2002 119.112 85.7811 119.241C81.3804 120.667 76.731 121.161 72.1289 120.692C74.4017 120.651 76.6666 120.413 78.8986 119.983C84.3801 118.915 89.5297 116.561 93.9236 113.114C98.3175 109.668 101.83 105.227 104.172 100.157C106.739 94.4874 107.727 88.2297 107.032 82.0449C106.337 75.8601 103.984 69.9778 100.223 65.0193C99.933 64.6163 99.4978 64.1167 99.1915 63.7299C98.8853 63.343 98.2406 62.666 97.8054 62.118C94.8982 58.996 91.0469 56.9142 86.8425 56.1921C82.638 55.47 78.3128 56.1475 74.5306 58.1207C81.3486 53.2852 91.1324 54.2523 97.4991 59.394L97.483 59.3295ZM80.2364 117.049L81.5742 116.485L82.8798 115.856C83.3795 115.615 83.9759 115.26 84.4917 114.986L86.0229 114.035C86.4581 113.729 87.0706 113.31 87.4897 112.987C93.4997 108.475 97.5909 101.865 98.9498 94.4737C100.309 87.082 98.8356 79.4496 94.8235 73.0946L94.0337 71.9018L93.1794 70.7574L92.2768 69.6292C91.3653 68.5349 90.3505 67.5309 89.2466 66.6311C86.9832 64.8057 84.3096 63.5584 81.4566 62.9968C78.6036 62.4352 75.6568 62.5761 72.8704 63.4075C75.6834 62.1936 78.7645 61.735 81.8091 62.0771C84.8537 62.4192 87.7562 63.55 90.2298 65.3578C91.901 66.5577 93.4122 67.966 94.7268 69.5485C97.9834 73.3783 100.243 77.9536 101.304 82.8675C102.365 87.7814 102.194 92.8815 100.808 97.7137C99.4218 102.546 96.8624 106.96 93.3577 110.564C89.8529 114.168 85.5116 116.85 80.72 118.371C76.3859 119.709 71.7984 120.013 67.3257 119.257C71.735 119.421 76.132 118.692 80.2525 117.114L80.2364 117.049Z" fill="black"/>
</svg>
