<svg width="160" height="160" viewBox="0 0 160 160" fill="none" xmlns="http://www.w3.org/2000/svg">
<rect width="160" height="160" transform="translate(0 160) rotate(-90)" fill="#4A99E9"/>
<path d="M111.015 64.4347C111.062 65.1074 111.062 65.7801 111.062 66.4589C111.062 87.1439 94.9647 111 65.5297 111V110.988C56.8345 111 48.3199 108.564 41 103.97C42.2644 104.118 43.535 104.193 44.8089 104.196C52.0147 104.202 59.0146 101.837 64.6836 97.4818C57.8358 97.3547 51.831 92.987 49.7332 86.6107C52.132 87.0633 54.6037 86.9703 56.9581 86.3411C49.4924 84.8656 44.1213 78.449 44.1213 70.997C44.1213 70.9288 44.1213 70.8637 44.1213 70.7986C46.3458 72.0107 48.8364 72.6833 51.3842 72.7577C44.3526 68.1607 42.1851 59.0101 46.4313 51.8557C54.5561 61.6356 66.5437 67.581 79.4122 68.2103C78.1225 62.7732 79.8843 57.0758 84.0418 53.2537C90.4871 47.3269 100.624 47.6307 106.683 53.9326C110.267 53.2413 113.702 51.9549 116.845 50.1322C115.651 53.7559 113.15 56.834 109.81 58.79C112.982 58.4242 116.082 57.5935 119 56.3257C116.852 59.4751 114.145 62.2184 111.015 64.4347Z" fill="white"/>
</svg>
